# xmcd CD database file
#
# Track frame offsets:
#	150
#	16237
#	31402
#	46215
#	61355
#	74953
#	92280
#	107573
#	120860
#	134923
#	147610
#	161338
#	175791
#	189036
#	201773
#	216586
#	232704
#	246529
#	263806
#
# Disc length: 3723 seconds
#
# Revision: 0
# Processed by: cddbd v1.5.2PL0 Copyright (c) Steve Scherf et al.
# Submitted via: CDex 1.51
#
DISCID=100e8913
DTITLE=Truck Stop - Best of Truck Stop
DYEAR=1997
DGENRE=Country
TTITLE0=Ich Möcht so gern Dave Dudley hör'n
TTITLE1=Easy Rider
TTITLE2=Ein Tag wie ein Freund
TTITLE3=Lass dir nie den Tag verderben
TTITLE4=Take it easy altes Haus
TTITLE5=Old Texas Town die Westernstadt
TTITLE6=Mein Opa das bin ich
TTITLE7=Der Trabbi und der Truck
TTITLE8=Schottischer Whisky
TTITLE9=Der wilde wilde Westen
TTITLE10=Das Mädchen wird schöner mit jedem Glas Bier
TTITLE11=Happy Birthday
TTITLE12=Die Frau mit dem Gurt
TTITLE13=Truck Stop Mama
TTITLE14=Louisiana Ladies
TTITLE15=Kopf oder Zahl
TTITLE16=Hillybilly Country Lilly
TTITLE17=Vater und Sohn
TTITLE18=Square Dance Darling
EXTD=YEAR: 1997
EXTT0=
EXTT1=
EXTT2=
EXTT3=
EXTT4=
EXTT5=
EXTT6=
EXTT7=
EXTT8=
EXTT9=
EXTT10=
EXTT11=
EXTT12=
EXTT13=
EXTT14=
EXTT15=
EXTT16=
EXTT17=
EXTT18=
PLAYORDER=
